<?xml version="1.0" standalone="no"?><!DOCTYPE svg PUBLIC "-//W3C//DTD SVG 1.1//EN" "http://www.w3.org/Graphics/SVG/1.1/DTD/svg11.dtd"><svg t="1583300417941" class="icon" viewBox="0 0 1539 1024" version="1.1" xmlns="http://www.w3.org/2000/svg" p-id="1048" xmlns:xlink="http://www.w3.org/1999/xlink" width="96.1875" height="64"><defs><style type="text/css"></style></defs><path d="M1280.829423 160.867221q26.446756 0 50.170291 10.112049t41.225337 27.612928 27.612928 41.225336 10.112049 50.948355v372.58139q0 27.223896-10.112049 50.559323t-27.612928 41.225336-41.225337 28.001959-50.170291 10.112049H271.980838q-27.223896 0-50.559323-10.112049t-41.225337-28.001959-28.001959-41.225336-10.112049-50.559323V290.765889q0-27.223896 10.112049-50.948355t28.001959-41.225336 41.225337-27.612928T271.980838 160.867221h1008.848585zM535.666643 619.788676q36.557883-28.780022 50.559323-84.005877l-50.559323-15.556644q-9.333986 42.78054-32.280382 57.171012t-60.282341 14.38955q-3.111329 0-19.057004-1.556125t-34.224616-12.445316-33.057523-35.39171-14.778581-71.17153q0-5.444595 3.50036-23.723537t14.38955-38.114008 31.502319-35.39171 55.614887-15.556644q33.446554 0 49.78126 13.612409t29.558084 42.391509L580.781371 398.105348q-14.00144-47.447994-48.226057-72.338624-34.224616-25.668693-84.78394-25.668693-43.558603 0-81.67261 20.224098-38.114008 21.779301-57.560044 59.893309-20.223176 38.892071-20.223176 91.78466 0 47.447994 17.88991 90.228535 17.112769 40.447274 52.114527 63.7827 32.669413 22.557364 88.672409 22.557364 52.892589 0 88.672409-28.780021z m275.352135-171.124005q-43.558603-12.445315-61.837544-22.946395t-18.278941-28.39099q0-21.001239 18.278941-32.669413t59.504278-11.667253q19.446035 0 31.113288 3.111329t19.446035 9.333986 12.834346 15.945676 10.501081 22.946395l42.78054-3.889391q0-2.333266-2.333266-18.667973t-14.000519-34.224617-35.780742-32.669413-66.894029-14.778581q-45.113806 0-70.782499 10.890112t-38.50304 26.057724-16.334706 30.724256-3.50036 24.890631q0 28.001959 15.556644 46.669931t35.780742 30.335225 39.669211 17.112769 28.001959 7.778783q24.89063 7.778783 40.447274 15.556644t23.723536 15.167613 10.890112 14.00144 2.722297 12.056284v17.88991q0 8.555924-5.444595 14.778581t-18.667972 10.112049-39.669212 3.889391q-31.89135 0-49.392229-6.611689t-25.668693-15.945675-9.333986-20.612207-1.167094-20.612208h-49.78126q0 15.556644 2.333266 35.391711t15.945675 37.335945 42.78054 29.558085 82.838783 12.056283q14.778581 0 33.446554-2.333266t34.224616-12.056284 26.446756-29.946193 10.890112-56.781981q0-7.778783-1.944235-19.835067t-12.834347-26.057724-33.446554-28.001959-64.559841-24.89063z m341.468102 0q-27.223896-6.222658-42.391509-11.667252t-22.946395-11.278221-9.723018-12.445315-1.944234-15.945675q0-21.001239 16.723738-31.891351t57.948152-10.88919q19.446035 0 29.946194 2.722298t16.334706 8.944955 9.333987 15.556644 9.723017 22.557364l51.337386-3.889392q0-2.333266-2.333266-18.667972T1250.494198 347.546947t-35.780742-32.669413-66.89403-14.778581q-44.336665 0-70.393468 10.890112t-38.89207 26.057724-16.334707 30.724256-3.50036 24.89063q0 28.001959 15.556644 48.226057t35.77982 33.057523 39.669211 19.446035 28.001959 8.944955q28.780022 7.778783 43.947635 14.38955t21.39027 12.445315 6.611688 11.278221 0.389032 10.890112q0 9.333986-1.555204 16.723738t-7.778783 12.834346-17.88991 8.166892-31.113287 2.722298q-31.89135 0-48.225135-8.166892t-23.335427-18.278942-7.389752-19.446035-0.389031-11.667253h-56.003918q0 3.889391 2.722298 22.168333t16.334706 38.892071 42.391509 36.946914 82.450673 16.334706q14.778581 0 33.446554-4.278423t34.224617-15.556643 26.446755-30.724257 10.890112-50.559323q0-7.778783-0.389031-20.224098t-10.112049-26.446755-33.057523-27.612928-69.227296-24.501599z" p-id="1049"></path></svg>